<?xml version="1.0" standalone="no"?><!DOCTYPE svg PUBLIC "-//W3C//DTD SVG 1.1//EN" "http://www.w3.org/Graphics/SVG/1.1/DTD/svg11.dtd"><svg t="1504933097639" class="icon" style="" viewBox="0 0 1024 1024" version="1.1" xmlns="http://www.w3.org/2000/svg" p-id="3495" xmlns:xlink="http://www.w3.org/1999/xlink" width="200" height="200"><defs><style type="text/css"></style></defs><path d="M286.043798 701.14004c-21.08897 0-37.659152 16.570182-37.659152 37.659152s16.570182 37.659152 37.659152 37.659151 37.659152-16.570182 37.659151-37.659151-16.570182-37.659152-37.659151-37.659152z m0-451.911111c-21.08897 0-37.659152 16.570182-37.659152 37.659152 0 21.090263 16.570182 37.660444 37.659152 37.660444s37.659152-16.570182 37.659151-37.660444c0-21.08897-16.570182-37.659152-37.659151-37.659152z m0 225.954909c-21.08897 0-37.659152 16.570182-37.659152 37.659152s16.570182 37.659152 37.659152 37.659151 37.659152-16.570182 37.659151-37.659151-16.570182-37.659152-37.659151-37.659152zM850.933657 23.272727H173.066343C90.216727 23.272727 22.429737 91.059717 22.429737 173.909333v677.867313c0 82.849616 67.78699 150.636606 150.636606 150.636607h677.867314c82.850909 0 150.636606-67.78699 150.636606-150.636607V173.909333C1001.570263 91.059717 933.784566 23.272727 850.933657 23.272727z m75.318303 828.506505c0 41.425455-33.892848 75.318303-75.318303 75.318303H173.066343c-41.425455 0-75.319596-33.892848-75.319596-75.318303V173.911919c0-41.425455 33.894141-75.319596 75.319596-75.319596h677.867314c41.425455 0 75.318303 33.894141 75.318303 75.319596v677.867313zM737.956202 249.228929H436.681697c-21.08897 0-37.659152 16.570182-37.659152 37.659152 0 21.090263 16.570182 37.660444 37.659152 37.660444h301.274505c21.08897 0 37.659152-16.570182 37.659152-37.660444 0-21.08897-16.570182-37.659152-37.659152-37.659152z m0 225.954909H436.681697c-21.08897 0-37.659152 16.570182-37.659152 37.659152s16.570182 37.659152 37.659152 37.659151h301.274505c21.08897 0 37.659152-16.570182 37.659152-37.659151s-16.570182-37.659152-37.659152-37.659152z m0 225.956202H436.681697c-21.08897 0-37.659152 16.570182-37.659152 37.659152s16.570182 37.659152 37.659152 37.659151h301.274505c21.08897 0 37.659152-16.570182 37.659152-37.659151s-16.570182-37.659152-37.659152-37.659152z" p-id="3496"></path></svg>